<svg xml:space="preserve" style="enable-background:new 0 0 541.28 362.55;" viewBox="0 0 541.28 362.55" y="0px" x="0px" xmlns:xlink="http://www.w3.org/1999/xlink" xmlns="http://www.w3.org/2000/svg" id="Layer_1" version="1.1">
<style type="text/css">
	.st0{fill:#FFFFFF;}
	.st1{fill:#603A38;}
	.st2{fill:#EB7B2C;}
</style>
<g>
	<g>
		<g>
			<g>
				<g>
					<polygon points="102.8,225.82 83.3,225.82 83.3,204.81 96.74,204.81 96.74,192.89 83.3,192.89 83.3,173.83 
						102.8,173.83 102.8,161.91 71.38,161.91 71.38,237.74 102.8,237.74" class="st1"></polygon>
				</g>
				<g>
					<path d="M123.72,225.72h13.66l2.17,12.02h12.14l-15.17-75.83h-11.92l-15.17,75.83h12.14L123.72,225.72z
						 M130.55,186.61l4.77,27.19h-9.54L130.55,186.61z" class="st1"></path>
				</g>
				<g>
					<polygon points="164.25,237.74 176.17,237.74 176.17,173.83 188.31,173.83 188.31,161.91 152.11,161.91 
						152.11,173.83 164.25,173.83" class="st1"></polygon>
				</g>
				<g>
					<path d="M248.57,219.54v-6.93c0-6.28-1.99-10.83-5.96-13.65c2.89-2.67,4.34-6.57,4.34-11.7v-7.04
						c0-3.03-0.47-5.7-1.41-8.02c-0.87-2.38-2.24-4.4-4.12-6.07c-3.18-2.82-7.33-4.22-12.46-4.22h-16.36v75.83h17.99
						c5.2,0,9.36-1.41,12.46-4.22c1.88-1.66,3.25-3.68,4.12-6.07C248.1,225.28,248.57,222.65,248.57,219.54z M224.51,173.83h4.44
						c2.17,0,3.68,0.4,4.55,1.19c1.01,1.01,1.52,2.75,1.52,5.2v7.04c0,2.53-0.54,4.33-1.63,5.42c-0.94,0.87-2.42,1.3-4.44,1.3h-4.44
						V173.83z M236.65,219.54c0,2.46-0.51,4.15-1.52,5.09c-0.87,0.8-2.38,1.19-4.55,1.19h-6.07v-19.93h6.07
						c2.02,0,3.5,0.43,4.44,1.3c1.08,1.01,1.63,2.82,1.63,5.42V219.54z" class="st1"></path>
				</g>
				<g>
					<polygon points="257.89,237.74 289.32,237.74 289.32,225.82 269.81,225.82 269.81,204.81 283.25,204.81 
						283.25,192.89 269.81,192.89 269.81,173.83 289.32,173.83 289.32,161.91 257.89,161.91" class="st1"></polygon>
				</g>
				<g>
					<polygon points="319.66,237.74 319.66,173.83 331.8,173.83 331.8,161.91 295.6,161.91 295.6,173.83 307.74,173.83 
						307.74,237.74" class="st1"></polygon>
				</g>
				<g>
					<polygon points="348.16,237.74 360.08,237.74 360.08,173.83 372.22,173.83 372.22,161.91 336.02,161.91 
						336.02,173.83 348.16,173.83" class="st1"></polygon>
				</g>
				<g>
					<polygon points="411.13,225.82 391.62,225.82 391.62,204.81 405.06,204.81 405.06,192.89 391.62,192.89 
						391.62,173.83 411.13,173.83 411.13,161.91 379.7,161.91 379.7,237.74 411.13,237.74" class="st1"></polygon>
				</g>
				<g>
					<path d="M432.58,207.3H438l6.18,30.44h12.14l-6.83-33.47c0.65-0.43,1.23-0.9,1.73-1.41
						c3.61-3.32,5.42-8.05,5.42-14.19v-8.12c0-6.07-1.81-10.76-5.42-14.08c-3.25-3.03-7.44-4.55-12.57-4.55h-17.99v75.83h11.92
						V207.3z M432.58,173.83h6.07c2.02,0,3.5,0.43,4.44,1.3c1.08,1.08,1.63,2.89,1.63,5.42v8.12c0,2.6-0.54,4.41-1.63,5.42
						c-0.94,0.87-2.42,1.3-4.44,1.3h-6.07V173.83z" class="st1"></path>
				</g>
				<g>
					<path d="M249.36,100.22c4.39,1.66,8.49,0.89,12.04-2.24c2.82-2.49,5.62-5.02,8.47-7.6
						c1.05-0.94,2.64-0.94,3.68,0.01c3.1,2.82,6.03,5.56,9.15,8.08c4.88,3.96,11.86,3.23,15.99-1.43
						c4.12-4.65,4.11-11.82-0.67-15.97c-7.97-6.93-16.24-13.52-24.6-20.38c-1.01-0.84-2.48-0.83-3.5,0.01
						c-8.46,7.02-16.87,13.89-25.08,20.98c-2.62,2.26-3.39,5.64-2.88,9.1C242.63,95.29,245.06,98.59,249.36,100.22z M249.86,84.62
						c6.64-5.44,13.26-10.91,20.09-16.53c1.01-0.83,2.48-0.83,3.49,0c6.81,5.58,13.47,10.98,20.04,16.49c3,2.51,3.26,6.08,0.94,8.75
						c-2.22,2.56-6.01,2.7-8.89,0.19c-3.47-3.03-6.84-6.17-10.26-9.26c-0.57-0.52-1.15-1.02-1.76-1.57
						c-1.05-0.93-2.64-0.92-3.68,0.03c-3.73,3.43-7.36,6.83-11.17,10.01c-1.51,1.26-3.61,2.29-5.52,2.45
						c-2.41,0.2-4.43-1.4-5.22-3.81C247.08,88.8,247.64,86.44,249.86,84.62z" class="st1"></path>
				</g>
				<g>
					<path d="M301.32,108.33c-0.39-0.59-0.94-0.96-1.59-1.09c-11.59-2.2-20.01-1.11-25.03,3.22
						c-1.16,1.01-2.14,2.18-2.93,3.5c-0.8-1.32-1.77-2.49-2.93-3.5c-5.02-4.34-13.44-5.42-25.03-3.22c-0.65,0.12-1.2,0.5-1.6,1.08
						l-0.03,0.05c-0.35,0.62-0.45,1.26-0.29,1.91l0.01,0.01c3.06,11.48,7.77,18.6,13.98,21.18c3.94,1.64,8.43,1.45,13.37-0.56v8.19
						c0,0.69,0.26,1.29,0.73,1.72c0.48,0.48,1.07,0.73,1.72,0.73c0.02,0,0.05-0.01,0.07-0.01c0.02,0,0.04,0.01,0.06,0.01
						c0.65,0,1.25-0.25,1.7-0.71c0.49-0.45,0.76-1.06,0.76-1.75l0-8.19c4.94,2.01,9.43,2.2,13.37,0.57
						c6.21-2.58,10.91-9.7,13.98-21.19c0.16-0.64,0.06-1.29-0.29-1.91L301.32,108.33z M283.14,120.81c0.66-0.17,1.18-0.58,1.5-1.19
						c0.32-0.6,0.38-1.25,0.18-1.9c-0.2-0.64-0.62-1.14-1.23-1.47c-0.56-0.28-1.16-0.34-1.82-0.17c-2.66,0.79-5.01,1.9-7.03,3.29
						c0.62-2.2,1.67-3.94,3.15-5.18c3.52-3.02,9.66-3.89,18.25-2.59c-2.6,8.41-6.08,13.57-10.35,15.34
						c-3.06,1.26-6.73,0.87-10.91-1.16C276.84,123.53,279.62,121.86,283.14,120.81z M261.71,116.07c-0.63-0.16-1.23-0.1-1.81,0.19
						c-0.6,0.32-1.01,0.81-1.21,1.46c-0.2,0.64-0.13,1.29,0.18,1.9c0.33,0.61,0.85,1.02,1.47,1.18c3.55,1.06,6.34,2.73,8.29,4.98
						c-4.18,2.03-7.84,2.42-10.91,1.16c-4.27-1.77-7.75-6.93-10.35-15.33c8.59-1.31,14.73-0.44,18.26,2.59
						c1.47,1.24,2.52,2.97,3.14,5.17C266.76,117.98,264.4,116.87,261.71,116.07z" class="st1"></path>
				</g>
				<g>
					<path d="M255.01,253.02c-2.47,0-4.51,0.72-6.14,2.17c-1.76,1.76-2.64,4.07-2.64,6.93v19.67
						c0,2.86,0.88,5.16,2.64,6.93c1.62,1.45,3.67,2.17,6.14,2.17c2.54,0,4.58-0.72,6.14-2.17c1.76-1.69,2.64-4,2.64-6.93v-4.76
						h-5.82v4.76c0,1.3-0.25,2.19-0.74,2.64c-0.46,0.42-1.2,0.63-2.22,0.63c-0.99,0-1.71-0.21-2.17-0.63
						c-0.53-0.49-0.79-1.37-0.79-2.64v-19.67c0-1.27,0.26-2.15,0.79-2.64c0.46-0.42,1.18-0.63,2.17-0.63c1.02,0,1.76,0.21,2.22,0.63
						c0.49,0.46,0.74,1.34,0.74,2.64v3.28h5.82v-3.28c0-2.93-0.88-5.23-2.64-6.93C259.59,253.74,257.54,253.02,255.01,253.02z" class="st1"></path>
				</g>
				<g>
					<path d="M276.8,253.02c-2.54,0-4.58,0.72-6.14,2.17c-1.76,1.69-2.64,4-2.64,6.93v19.67c0,2.93,0.88,5.23,2.64,6.93
						c1.55,1.45,3.6,2.17,6.14,2.17c2.54,0,4.58-0.72,6.14-2.17c1.76-1.69,2.64-4,2.64-6.93v-19.67c0-2.93-0.88-5.23-2.64-6.93
						C281.38,253.74,279.34,253.02,276.8,253.02z M279.76,281.78c0,1.3-0.26,2.19-0.79,2.64c-0.42,0.42-1.15,0.63-2.17,0.63
						c-0.99,0-1.71-0.21-2.17-0.63c-0.53-0.49-0.79-1.37-0.79-2.64v-19.67c0-1.27,0.26-2.15,0.79-2.64
						c0.46-0.42,1.18-0.63,2.17-0.63c1.02,0,1.75,0.21,2.17,0.63c0.53,0.46,0.79,1.34,0.79,2.64V281.78z" class="st1"></path>
				</g>
				<g>
					<path d="M456.97,270.71H293.98c-0.69,0-1.24,0.56-1.24,1.24c0,0.69,0.56,1.24,1.24,1.24h162.99
						c0.69,0,1.24-0.56,1.24-1.24C458.21,271.26,457.65,270.71,456.97,270.71z" class="st1"></path>
				</g>
				<g>
					<path d="M234.37,270.71H71.38c-0.69,0-1.24,0.56-1.24,1.24c0,0.69,0.56,1.24,1.24,1.24h162.99
						c0.69,0,1.24-0.56,1.24-1.24C235.61,271.26,235.06,270.71,234.37,270.71z" class="st1"></path>
				</g>
			</g>
			<g>
				<g>
					<path d="M479.45,142.85l-4.55-8.5c-0.25,0.03-0.53,0.03-0.85,0.03h-3.64v8.47h-3.13V120.9h6.77
						c5.02,0,7.9,2.95,7.9,6.74c0,2.67-1.41,4.89-3.95,5.99l5.21,9.22H479.45z M474.05,131.53c3.04,0,4.67-1.54,4.67-3.89
						c0-2.35-1.63-3.89-4.67-3.89h-3.64v7.78H474.05z" class="st1"></path>
				</g>
				<g>
					<path d="M473.84,152.17c-11.19,0-20.29-9.1-20.29-20.29c0-11.19,9.1-20.29,20.29-20.29
						c11.19,0,20.29,9.1,20.29,20.29C494.14,143.07,485.03,152.17,473.84,152.17z M473.84,114.31c-9.68,0-17.56,7.88-17.56,17.56
						s7.88,17.57,17.56,17.57s17.57-7.88,17.57-17.57S483.53,114.31,473.84,114.31z" class="st1"></path>
				</g>
			</g>
		</g>
	</g>
</g>
</svg>
